<svg xmlns="http://www.w3.org/2000/svg" xmlns:xlink="http://www.w3.org/1999/xlink" width="500" zoomAndPan="magnify" viewBox="0 0 375 374.999991" height="500" preserveAspectRatio="xMidYMid meet" version="1.0"><defs><clipPath id="91a64aeea7"><path d="M 100.78125 0.363281 L 274.03125 0.363281 L 274.03125 174 L 100.78125 174 Z M 100.78125 0.363281 " clip-rule="nonzero"/></clipPath><clipPath id="98e56c0a4c"><path d="M 134.359375 7.292969 L 274.03125 7.292969 L 274.03125 174 L 134.359375 174 Z M 134.359375 7.292969 " clip-rule="nonzero"/></clipPath></defs><path fill="#4d4d4d" d="M 201.929688 357.683594 L 194.527344 369.9375 C 191.6875 374.636719 184.871094 374.636719 182.03125 369.9375 L 174.628906 357.683594 L 174.628906 162.910156 L 201.929688 162.910156 L 201.929688 357.683594 " fill-opacity="1" fill-rule="nonzero"/><path fill="#808080" d="M 182.03125 369.9375 C 183.125 371.742188 184.800781 372.839844 186.613281 373.257812 L 186.613281 162.910156 L 179.089844 162.910156 L 179.089844 365.0625 L 182.03125 369.9375 " fill-opacity="1" fill-rule="nonzero"/><path fill="#1a1a1a" d="M 195.085938 162.910156 L 195.085938 369.019531 L 201.929688 357.683594 L 201.929688 162.910156 L 195.085938 162.910156 " fill-opacity="1" fill-rule="nonzero"/><g clip-path="url(#91a64aeea7)"><path fill="#5e17eb" d="M 274.195312 87.070312 C 274.195312 134.957031 235.375 173.777344 187.488281 173.777344 C 139.601562 173.777344 100.78125 134.957031 100.78125 87.070312 C 100.78125 39.183594 139.601562 0.363281 187.488281 0.363281 C 235.375 0.363281 274.195312 39.183594 274.195312 87.070312 " fill-opacity="1" fill-rule="nonzero"/></g><g clip-path="url(#98e56c0a4c)"><path fill="#004aad" d="M 222.046875 7.566406 C 242.609375 23.421875 255.910156 48.230469 255.910156 76.203125 C 255.910156 124.089844 217.089844 162.910156 169.203125 162.910156 C 156.914062 162.910156 145.238281 160.316406 134.648438 155.707031 C 149.285156 166.992188 167.574219 173.777344 187.488281 173.777344 C 235.375 173.777344 274.195312 134.957031 274.195312 87.070312 C 274.195312 51.476562 252.726562 20.925781 222.046875 7.566406 " fill-opacity="1" fill-rule="nonzero"/></g><path fill="#5ce1e6" d="M 192.753906 57.546875 C 192.753906 75.84375 177.925781 90.671875 159.628906 90.671875 C 141.335938 90.671875 126.503906 75.84375 126.503906 57.546875 C 126.503906 39.253906 141.335938 24.421875 159.628906 24.421875 C 177.925781 24.421875 192.753906 39.253906 192.753906 57.546875 " fill-opacity="1" fill-rule="nonzero"/></svg>