<svg xmlns="http://www.w3.org/2000/svg" xmlns:xlink="http://www.w3.org/1999/xlink" width="500" zoomAndPan="magnify" viewBox="0 0 375 374.999991" height="500" preserveAspectRatio="xMidYMid meet" version="1.0"><defs><clipPath id="d399e6b7a3"><path d="M 100.78125 0.363281 L 274.007812 0.363281 L 274.007812 174 L 100.78125 174 Z M 100.78125 0.363281 " clip-rule="nonzero"/></clipPath><clipPath id="5a03fa5918"><path d="M 134.324219 7.292969 L 274.007812 7.292969 L 274.007812 174 L 134.324219 174 Z M 134.324219 7.292969 " clip-rule="nonzero"/></clipPath></defs><path fill="#4d4d4d" d="M 201.820312 357.683594 L 194.425781 369.9375 C 191.589844 374.636719 184.78125 374.636719 181.945312 369.9375 L 174.550781 357.683594 L 174.550781 162.910156 L 201.820312 162.910156 L 201.820312 357.683594 " fill-opacity="1" fill-rule="nonzero"/><path fill="#808080" d="M 181.945312 369.9375 C 183.035156 371.742188 184.710938 372.839844 186.523438 373.257812 L 186.523438 162.910156 L 179.003906 162.910156 L 179.003906 365.0625 L 181.945312 369.9375 " fill-opacity="1" fill-rule="nonzero"/><path fill="#1a1a1a" d="M 194.984375 162.910156 L 194.984375 369.019531 L 201.820312 357.683594 L 201.820312 162.910156 L 194.984375 162.910156 " fill-opacity="1" fill-rule="nonzero"/><g clip-path="url(#d399e6b7a3)"><path fill="#f12200" d="M 274.007812 87.070312 C 274.007812 134.957031 235.226562 173.777344 187.394531 173.777344 C 139.5625 173.777344 100.78125 134.957031 100.78125 87.070312 C 100.78125 39.183594 139.5625 0.363281 187.394531 0.363281 C 235.226562 0.363281 274.007812 39.183594 274.007812 87.070312 " fill-opacity="1" fill-rule="nonzero"/></g><g clip-path="url(#5a03fa5918)"><path fill="#9e1600" d="M 221.914062 7.566406 C 242.457031 23.421875 255.742188 48.230469 255.742188 76.203125 C 255.742188 124.089844 216.964844 162.910156 169.128906 162.910156 C 156.851562 162.910156 145.191406 160.316406 134.609375 155.707031 C 149.230469 166.992188 167.503906 173.777344 187.394531 173.777344 C 235.226562 173.777344 274.007812 134.957031 274.007812 87.070312 C 274.007812 51.476562 252.5625 20.925781 221.914062 7.566406 " fill-opacity="1" fill-rule="nonzero"/></g><path fill="#ffd6cf" d="M 192.65625 57.546875 C 192.65625 75.84375 177.839844 90.671875 159.566406 90.671875 C 141.292969 90.671875 126.476562 75.84375 126.476562 57.546875 C 126.476562 39.253906 141.292969 24.421875 159.566406 24.421875 C 177.839844 24.421875 192.65625 39.253906 192.65625 57.546875 " fill-opacity="1" fill-rule="nonzero"/></svg>