<svg width="206" height="153" viewBox="0 0 206 153" fill="none" xmlns="http://www.w3.org/2000/svg">
<g id="upload/rafiki">
<g id="background-complete">
<path id="Vector" d="M205.336 134.453H0V134.556H205.336V134.453Z" fill="#EBEBEB"/>
<path id="Vector_2" d="M45.8544 137.9H32.2529V138.003H45.8544V137.9Z" fill="#EBEBEB"/>
<path id="Vector_3" d="M67.1458 140.86H54.7559V140.963H67.1458V140.86Z" fill="#EBEBEB"/>
<path id="Vector_4" d="M39.0559 141.71H23.3477V141.813H39.0559V141.71Z" fill="#EBEBEB"/>
<path id="Vector_5" d="M184.762 141.488H178.232V141.591H184.762V141.488Z" fill="#EBEBEB"/>
<path id="Vector_6" d="M176.914 141.488H160.767V141.591H176.914V141.488Z" fill="#EBEBEB"/>
<path id="Vector_7" d="M115.124 137.846H102.668V137.948H115.124V137.846Z" fill="#EBEBEB"/>
<path id="Vector_8" d="M146.516 137.846H116.906V137.948H146.516V137.846Z" fill="#EBEBEB"/>
<path id="Vector_9" d="M97.3298 116.138H18.0332C17.412 116.137 16.8166 115.889 16.3777 115.45C15.9389 115.01 15.6924 114.414 15.6924 113.793V2.3244C15.6978 1.70676 15.9467 1.1162 16.385 0.680984C16.8232 0.24577 17.4155 0.00105805 18.0332 0H97.3298C97.9518 0 98.5482 0.247055 98.988 0.686816C99.4277 1.12658 99.6748 1.72302 99.6748 2.34494V113.793C99.6748 114.415 99.4277 115.011 98.988 115.451C98.5482 115.891 97.9518 116.138 97.3298 116.138ZM18.0332 0.0821347C17.4392 0.0832225 16.87 0.31994 16.4503 0.740329C16.0307 1.16072 15.795 1.73043 15.7951 2.3244V113.793C15.795 114.387 16.0307 114.957 16.4503 115.377C16.87 115.798 17.4392 116.034 18.0332 116.035H97.3298C97.9242 116.034 98.4939 115.798 98.9142 115.377C99.3344 114.957 99.571 114.387 99.5721 113.793V2.3244C99.571 1.73005 99.3344 1.16035 98.9142 0.740078C98.4939 0.319807 97.9242 0.0832203 97.3298 0.0821347H18.0332Z" fill="#EBEBEB"/>
<path id="Vector_10" d="M186.162 116.138H106.862C106.24 116.137 105.644 115.89 105.205 115.45C104.765 115.01 104.518 114.415 104.517 113.793V2.3244C104.523 1.70639 104.773 1.11583 105.212 0.680727C105.651 0.245626 106.243 0.00104651 106.862 0H186.162C186.779 0.00213734 187.37 0.247327 187.808 0.682425C188.245 1.11752 188.494 1.70747 188.499 2.3244V113.793C188.499 114.414 188.253 115.009 187.815 115.448C187.377 115.888 186.783 116.136 186.162 116.138ZM106.862 0.0821347C106.267 0.0832203 105.697 0.319807 105.277 0.740078C104.857 1.16035 104.62 1.73005 104.619 2.3244V113.793C104.62 114.387 104.857 114.957 105.277 115.377C105.697 115.798 106.267 116.034 106.862 116.035H186.162C186.757 116.034 187.326 115.798 187.747 115.377C188.167 114.957 188.403 114.387 188.405 113.793V2.3244C188.403 1.73005 188.167 1.16035 187.747 0.740078C187.326 0.319807 186.757 0.0832203 186.162 0.0821347H106.862Z" fill="#EBEBEB"/>
<path id="Vector_11" d="M120.487 86.7383H108.672V134.454H120.487V86.7383Z" fill="#E6E6E6"/>
<path id="Vector_12" d="M115.576 134.453H120.487V126.224H110.426L115.576 134.453Z" fill="#F5F5F5"/>
<path id="Vector_13" d="M35.1627 86.7383H23.3477V134.454H35.1627V86.7383Z" fill="#E6E6E6"/>
<path id="Vector_14" d="M120.483 86.7383H30.874V131.621H120.483V86.7383Z" fill="#F5F5F5"/>
<path id="Vector_15" d="M116.881 100.516H34.4961V90.7012H116.881V100.516ZM34.9068 100.106H116.47V91.1118H34.9068V100.106Z" fill="#EBEBEB"/>
<path id="Vector_16" d="M35.7857 134.453H30.874V126.224H40.9355L35.7857 134.453Z" fill="#F5F5F5"/>
<path id="Vector_17" d="M116.881 127.658H34.4961V104.25H116.881V127.658ZM34.9068 127.248H116.47V104.661H34.9068V127.248Z" fill="#EBEBEB"/>
<path id="Vector_18" d="M167.502 9.6582H74.123V74.3226H167.502V9.6582Z" fill="#E6E6E6"/>
<path id="Vector_19" d="M169.217 9.6582H75.8389V74.3226H169.217V9.6582Z" fill="#F5F5F5"/>
<path id="Vector_20" d="M166.133 71.0624V12.9277L78.9184 12.9277V71.0624H166.133Z" fill="white"/>
<path id="Vector_21" d="M166.138 71.0585V12.9238H164.84V71.0585H166.138Z" fill="#E6E6E6"/>
<path id="Vector_22" d="M167.941 18.1309H77.1123V20.3238H167.941V18.1309Z" fill="#F5F5F5"/>
<g id="Group" opacity="0.5">
<path id="Vector_23" d="M167.69 7.49805H164.002V79.3204H167.69V7.49805Z" fill="#F0F0F0"/>
<path id="Vector_24" d="M163.004 7.49805H159.316V79.3204H163.004V7.49805Z" fill="#F0F0F0"/>
<path id="Vector_25" d="M158.318 7.49805H154.63V79.3204H158.318V7.49805Z" fill="#F0F0F0"/>
<path id="Vector_26" d="M153.637 7.49805H149.949V79.3204H153.637V7.49805Z" fill="#F0F0F0"/>
<path id="Vector_27" d="M148.952 7.49805H145.264V79.3204H148.952V7.49805Z" fill="#F0F0F0"/>
<path id="Vector_28" d="M144.265 7.49805H140.577V79.3204H144.265V7.49805Z" fill="#F0F0F0"/>
<path id="Vector_29" d="M139.583 7.49805H135.896V79.3204H139.583V7.49805Z" fill="#F0F0F0"/>
<path id="Vector_30" d="M134.897 7.49805H131.209V79.3204H134.897V7.49805Z" fill="#F0F0F0"/>
<path id="Vector_31" d="M130.212 7.49805H126.524V79.3204H130.212V7.49805Z" fill="#F0F0F0"/>
<path id="Vector_32" d="M125.527 7.49805H121.839V79.3204H125.527V7.49805Z" fill="#F0F0F0"/>
<path id="Vector_33" d="M120.844 7.49805H117.156V79.3204H120.844V7.49805Z" fill="#F0F0F0"/>
<path id="Vector_34" d="M116.159 7.49805H112.471V79.3204H116.159V7.49805Z" fill="#F0F0F0"/>
<path id="Vector_35" d="M111.472 7.49805H107.784V79.3204H111.472V7.49805Z" fill="#F0F0F0"/>
<path id="Vector_36" d="M106.786 7.49805H103.099V79.3204H106.786V7.49805Z" fill="#F0F0F0"/>
<path id="Vector_37" d="M102.106 7.49805H98.418V79.3204H102.106V7.49805Z" fill="#F0F0F0"/>
</g>
<path id="Vector_38" d="M52.6687 17.3838H25.6055V66.5987H52.6687V17.3838Z" fill="#F0F0F0"/>
<path id="Vector_39" d="M58.4805 17.3838H27.3516V66.5987H58.4805V17.3838Z" fill="#F5F5F5"/>
<path id="Vector_40" d="M28.6191 18.5503L28.6191 65.4326H57.2101V18.5503H28.6191Z" fill="white"/>
<path id="Vector_41" d="M36.2422 27.8805V56.1019C36.2422 56.7279 36.7497 57.2354 37.3756 57.2354H48.4597C49.0857 57.2354 49.5931 56.7279 49.5931 56.1019V27.8805C49.5931 27.2545 49.0857 26.7471 48.4597 26.7471H37.3756C36.7497 26.7471 36.2422 27.2545 36.2422 27.8805Z" fill="#F5F5F5"/>
<path id="Vector_42" d="M157.661 58.4336L163.197 72.0761C163.037 111.538 164.819 113.813 164.84 120.601H150.877C150.359 87.5708 155.259 94.9957 157.661 58.4336Z" fill="#EBEBEB"/>
<path id="Vector_43" d="M165.464 98.7333C154.216 67.7645 128.319 77.3537 129.481 88.6431C130.643 99.9324 171.932 116.544 165.464 98.7333Z" fill="#EBEBEB"/>
<path id="Vector_44" d="M161.209 116.59C155.074 96.6354 138.754 99.892 138.754 109.062C138.754 118.233 164.741 128.068 161.209 116.59Z" fill="#EBEBEB"/>
<path id="Vector_45" d="M160.774 80.5656C151.139 53.8719 127.144 57.5679 129.078 68.8162C131.012 80.0645 166.322 95.9083 160.774 80.5656Z" fill="#EBEBEB"/>
<path id="Vector_46" d="M160.839 68.6026C161.73 50.4263 143.731 42.9438 144.979 53.8184C146.228 64.693 160.326 79.0542 160.839 68.6026Z" fill="#EBEBEB"/>
<path id="Vector_47" d="M159.496 87.2099C163.295 64.8119 186.362 56.2946 183.783 68.972C181.204 81.6494 157.307 100.093 159.496 87.2099Z" fill="#EBEBEB"/>
<path id="Vector_48" d="M157.555 74.5484C153.074 51.0621 173.797 40.627 174.392 51.9615C174.988 63.296 160.13 88.0554 157.555 74.5484Z" fill="#EBEBEB"/>
<path id="Vector_49" d="M155.756 101.079C164.91 78.4473 184.503 84.0611 182.536 94.3608C180.569 104.66 150.491 114.098 155.756 101.079Z" fill="#EBEBEB"/>
<path id="Vector_50" d="M160.273 116.881C160.068 102.281 173.324 98.5073 173.48 106.967C173.636 115.427 160.392 125.279 160.273 116.881Z" fill="#EBEBEB"/>
<path id="Vector_51" d="M156.224 134.556C152.752 134.567 149.379 133.393 146.665 131.227C143.951 129.062 142.057 126.035 141.296 122.646C140.938 120.824 140.417 119.037 139.74 117.308L139.629 117.028H172.824L172.709 117.308C172.033 119.037 171.513 120.824 171.156 122.646C170.395 126.035 168.5 129.062 165.785 131.228C163.07 133.393 159.697 134.567 156.224 134.556Z" fill="#E0E0E0"/>
</g>
<g id="Shadow">
<path id="path" d="M102.668 153C146.644 153 182.293 150.918 182.293 148.351C182.293 145.783 146.644 143.702 102.668 143.702C58.6924 143.702 23.043 145.783 23.043 148.351C23.043 150.918 58.6924 153 102.668 153Z" fill="#F5F5F5"/>
</g>
<g id="Cloud">
<path id="Vector_52" d="M53.1298 65.2727L52.8711 64.9565C53.9333 64.0904 55.059 63.3052 56.2386 62.6074L56.448 62.9647C55.2859 63.6501 54.1767 64.4216 53.1298 65.2727Z" fill="#3F6DD9"/>
<path id="Vector_53" d="M44.6944 77.0088L44.3125 76.8651C45.7229 73.1125 47.9167 69.7035 50.7477 66.8652L51.0393 67.1568C48.2496 69.9537 46.0868 73.312 44.6944 77.0088Z" fill="#3F6DD9"/>
<path id="Vector_54" d="M124.258 95.1068C124.227 91.5418 123.326 88.0384 121.632 84.9013C119.938 81.7642 117.504 79.0885 114.54 77.1069C111.577 75.1253 108.174 73.8979 104.627 73.5315C101.081 73.1651 97.4991 73.6707 94.1929 75.0044C91.7883 70.0774 87.9116 66.0197 83.0993 63.393C78.287 60.7664 72.7771 59.7007 67.3325 60.3435C61.8878 60.9863 56.7777 63.3058 52.7093 66.9809C48.641 70.656 45.8158 75.5049 44.6248 80.8565C38.7222 81.2287 33.1966 83.8849 29.2191 88.262C25.2416 92.6391 23.125 98.393 23.3178 104.304C23.5106 110.215 25.9976 115.819 30.2518 119.928C34.5061 124.036 40.193 126.327 46.1073 126.314H118.517C122.292 126.319 125.949 125 128.852 122.586C131.754 120.172 133.719 116.817 134.402 113.105C135.086 109.392 134.447 105.558 132.594 102.268C130.742 98.9788 127.795 96.4432 124.266 95.1027L124.258 95.1068Z" fill="#3F6DD9"/>
<path id="Vector_55" d="M107.971 87.7558H50.0253C49.5536 87.7537 49.102 87.5651 48.7688 87.2312C48.4357 86.8973 48.2481 86.4452 48.2471 85.9735C48.2482 85.5023 48.4358 85.0506 48.7691 84.7173C49.1023 84.3841 49.554 84.1964 50.0253 84.1953H107.971C108.442 84.1964 108.894 84.3841 109.227 84.7173C109.56 85.0506 109.748 85.5023 109.749 85.9735C109.748 86.4452 109.561 86.8973 109.228 87.2312C108.894 87.5651 108.443 87.7537 107.971 87.7558Z" fill="#263238"/>
<path id="Vector_56" d="M99.2321 111.821H58.7645C57.1787 111.821 55.6578 111.191 54.5365 110.07C53.4151 108.948 52.7852 107.428 52.7852 105.842C52.7852 104.256 53.4151 102.735 54.5365 101.614C55.6578 100.492 57.1787 99.8623 58.7645 99.8623H99.2321C100.818 99.8623 102.339 100.492 103.46 101.614C104.582 102.735 105.212 104.256 105.212 105.842C105.212 107.428 104.582 108.948 103.46 110.07C102.339 111.191 100.818 111.821 99.2321 111.821ZM58.7645 100.273C57.2876 100.273 55.8712 100.86 54.8269 101.904C53.7825 102.948 53.1958 104.365 53.1958 105.842C53.1958 107.319 53.7825 108.735 54.8269 109.779C55.8712 110.824 57.2876 111.41 58.7645 111.41H99.2321C100.709 111.41 102.125 110.824 103.17 109.779C104.214 108.735 104.801 107.319 104.801 105.842C104.801 104.365 104.214 102.948 103.17 101.904C102.125 100.86 100.709 100.273 99.2321 100.273H58.7645Z" fill="white"/>
<path id="Vector_57" d="M68.218 110.385H58.7725C57.5657 110.386 56.4076 109.909 55.5524 109.057C54.6971 108.206 54.2143 107.05 54.21 105.843C54.2132 104.639 54.6927 103.485 55.5436 102.633C56.3946 101.782 57.548 101.301 58.752 101.297H68.1974C69.4014 101.301 70.5548 101.782 71.4058 102.633C72.2568 103.485 72.7362 104.639 72.7395 105.843C72.7352 107.043 72.2581 108.192 71.4117 109.043C70.5652 109.893 69.4177 110.375 68.218 110.385Z" fill="white"/>
<path id="Vector_58" d="M109.626 53.2351L101.943 85.9739H56.1035L68.9247 31.334L100.666 38.7795L109.626 53.2351Z" fill="#3F6DD9"/>
<path id="Vector_59" opacity="0.8" d="M109.626 53.2351L101.943 85.9739H56.1035L68.9247 31.334L100.666 38.7795L109.626 53.2351Z" fill="#FAFAFA"/>
<path id="Vector_60" d="M103.647 59.3218L68.8301 51.1494C68.7111 51.1219 68.5986 51.0711 68.4993 51C68.3999 50.9288 68.3156 50.8388 68.2511 50.735C68.1866 50.6313 68.1433 50.5158 68.1235 50.3952C68.1038 50.2746 68.108 50.1513 68.1361 50.0324C68.1918 49.7918 68.3407 49.5831 68.5502 49.4522C68.7596 49.3214 69.0124 49.2789 69.2531 49.3342L104.074 57.4943C104.314 57.5519 104.522 57.702 104.652 57.912C104.782 58.122 104.824 58.3748 104.768 58.6154C104.712 58.8573 104.563 59.0673 104.353 59.1996C104.143 59.3319 103.889 59.3758 103.647 59.3218Z" fill="#3F6DD9"/>
<path id="Vector_61" d="M102.316 64.9881L67.4991 56.8157C67.3799 56.7877 67.2674 56.7365 67.168 56.665C67.0686 56.5934 66.9843 56.503 66.9199 56.3989C66.8554 56.2948 66.8121 56.179 66.7924 56.0582C66.7727 55.9373 66.777 55.8138 66.8051 55.6946C66.8627 55.4544 67.0128 55.2468 67.2228 55.1168C67.4328 54.9868 67.6856 54.945 67.9262 55.0006L102.743 63.1729C102.983 63.2296 103.19 63.3789 103.321 63.5882C103.451 63.7975 103.492 64.0498 103.437 64.29C103.38 64.5309 103.231 64.7396 103.021 64.8704C102.81 65.0012 102.557 65.0435 102.316 64.9881Z" fill="#3F6DD9"/>
<path id="Vector_62" d="M100.986 70.6355L66.1692 62.4673C65.929 62.4097 65.7214 62.2596 65.5914 62.0496C65.4614 61.8396 65.4196 61.5868 65.4752 61.3461C65.5337 61.1065 65.684 60.8995 65.8937 60.7697C66.1034 60.6399 66.3558 60.5977 66.5963 60.6521L101.413 68.8204C101.532 68.8484 101.645 68.8996 101.744 68.9711C101.844 69.0427 101.928 69.133 101.992 69.2372C102.057 69.3413 102.1 69.4571 102.12 69.5779C102.139 69.6988 102.135 69.8223 102.107 69.9415C102.079 70.0607 102.028 70.1732 101.956 70.2726C101.885 70.372 101.794 70.4563 101.69 70.5208C101.586 70.5852 101.47 70.6285 101.35 70.6482C101.229 70.6679 101.105 70.6636 100.986 70.6355Z" fill="#3F6DD9"/>
<path id="Vector_63" d="M99.6592 76.3189L64.8383 68.1712C64.5987 68.1127 64.3917 67.9623 64.2619 67.7526C64.1321 67.5429 64.0899 67.2906 64.1443 67.0501C64.2019 66.8099 64.352 66.6022 64.562 66.4722C64.772 66.3422 65.0248 66.3005 65.2654 66.356L100.082 74.5243C100.323 74.5819 100.531 74.7319 100.661 74.9417C100.792 75.1515 100.835 75.4043 100.78 75.6454C100.719 75.8824 100.567 76.0858 100.358 76.2118C100.148 76.3378 99.8971 76.3763 99.6592 76.3189Z" fill="#3F6DD9"/>
<path id="Vector_64" d="M84.484 78.7377L63.5109 73.8096C63.2732 73.7494 63.0689 73.598 62.942 73.3881C62.8152 73.1783 62.7761 72.9269 62.8333 72.6885C62.8609 72.5695 62.9117 72.457 62.9828 72.3577C63.0539 72.2583 63.1439 72.174 63.2477 72.1095C63.3515 72.045 63.467 72.0017 63.5876 71.9819C63.7082 71.9622 63.8314 71.9664 63.9504 71.9945L84.9275 76.9225C85.0467 76.9505 85.1592 77.0018 85.2586 77.0733C85.358 77.1448 85.4423 77.2352 85.5067 77.3393C85.5712 77.4434 85.6145 77.5592 85.6342 77.6801C85.6539 77.8009 85.6496 77.9245 85.6215 78.0437C85.5936 78.1646 85.5418 78.2788 85.4692 78.3794C85.3966 78.4801 85.3046 78.5652 85.1987 78.6299C85.0927 78.6945 84.9749 78.7374 84.8522 78.7559C84.7295 78.7744 84.6043 78.7682 84.484 78.7377Z" fill="#3F6DD9"/>
<path id="Vector_65" d="M109.626 53.2359L97.918 50.4885L100.665 38.7803L109.626 53.2359Z" fill="#3F6DD9"/>
</g>
<g id="Character">
<path id="Vector_66" d="M117.49 84.3223L107.757 148.35H109.679L110.964 139.878H135.761L134.475 148.35H136.397L146.13 84.3223H117.49ZM136.019 138.182H111.223L112.607 129.098H137.403L136.019 138.182ZM137.662 127.402H112.861L114.245 118.318H139.042L137.662 127.402ZM139.305 116.622H114.5L115.884 107.538H140.68L139.305 116.622ZM140.947 105.841H116.143L117.523 96.7533H142.319L140.947 105.841ZM117.781 95.0572L119.161 85.9732H143.958L142.578 95.0572H117.781Z" fill="#263238"/>
<path id="Vector_67" d="M150.134 84.3223H121.494L131.227 148.35H133.149L131.859 139.878H156.656L157.945 148.35H159.867L150.134 84.3223ZM123.667 85.965H148.463L149.843 95.049H125.046L123.667 85.965ZM125.309 96.7451H150.102L151.481 105.833H126.685L125.309 96.7451ZM126.952 107.529H151.748L153.12 116.63H128.324L126.952 107.529ZM128.595 118.309H153.391L154.771 127.394H129.962L128.595 118.309ZM131.613 138.174L130.233 129.09H155.03L156.409 138.174H131.613Z" fill="#263238"/>
<path id="Vector_68" opacity="0.4" d="M150.134 84.3223H121.494L131.227 148.35H133.149L131.859 139.878H156.656L157.945 148.35H159.867L150.134 84.3223ZM123.667 85.965H148.463L149.843 95.049H125.046L123.667 85.965ZM125.309 96.7451H150.102L151.481 105.833H126.685L125.309 96.7451ZM126.952 107.529H151.748L153.12 116.63H128.324L126.952 107.529ZM128.595 118.309H153.391L154.771 127.394H129.962L128.595 118.309ZM131.613 138.174L130.233 129.09H155.03L156.409 138.174H131.613Z" fill="white"/>
<path id="Vector_69" d="M137.862 22.0039C138.683 22.6363 139.406 23.2688 140.154 23.9259C140.901 24.5829 141.616 25.2564 142.322 25.9505C143.755 27.3554 145.094 28.8535 146.33 30.435L146.79 31.0551L147.02 31.3631C147.15 31.5447 147.267 31.7355 147.369 31.9339C147.7 32.5975 147.892 33.3212 147.936 34.0612C147.995 35.2018 147.878 36.3448 147.587 37.4493C147.085 39.4315 146.32 41.3375 145.312 43.1165L143.213 42.2623C143.633 40.4902 143.93 38.6913 144.104 36.8784C144.182 36.0969 144.157 35.3086 144.03 34.5335C143.993 34.3122 143.911 34.1011 143.788 33.9134C143.767 33.8929 143.759 33.8929 143.747 33.8805L143.525 33.63L143.082 33.1249C141.85 31.7943 140.552 30.4966 139.18 29.2482C137.809 27.9997 136.388 26.7431 135.008 25.5767L137.862 22.0039Z" fill="#7F3E3B"/>
<path id="Vector_70" d="M144.048 41.416L141.687 43.0587L144.561 44.7999C144.561 44.7999 146.044 43.3831 145.407 42.069L144.048 41.416Z" fill="#7F3E3B"/>
<path id="Vector_71" d="M140.511 45.7565L142.687 46.9762L144.576 44.7791L141.685 43.042L140.511 45.7565Z" fill="#7F3E3B"/>
<path id="Vector_72" d="M121.785 13.4197C121.851 13.6866 121.765 13.9371 121.592 13.9823C121.42 14.0275 121.222 13.8468 121.153 13.5716C121.083 13.2965 121.173 13.0542 121.346 13.009C121.518 12.9638 121.715 13.1404 121.785 13.4197Z" fill="#263238"/>
<path id="Vector_73" d="M121.789 13.9336C121.681 14.8262 121.45 15.6996 121.104 16.529C121.318 16.6119 121.549 16.6471 121.778 16.6322C122.008 16.6173 122.232 16.5527 122.434 16.4428L121.789 13.9336Z" fill="#630F0F"/>
<path id="Vector_74" d="M122.348 11.707C122.316 11.7174 122.282 11.7174 122.249 11.707C122.063 11.6279 121.861 11.5938 121.659 11.6073C121.457 11.6209 121.261 11.6817 121.087 11.785C121.053 11.8037 121.013 11.8092 120.975 11.8004C120.937 11.7917 120.903 11.7693 120.88 11.7374C120.858 11.7056 120.847 11.6666 120.851 11.6277C120.856 11.5888 120.874 11.5527 120.902 11.5263C121.119 11.3901 121.366 11.3082 121.621 11.2875C121.876 11.2667 122.133 11.3078 122.369 11.4072C122.4 11.4198 122.427 11.442 122.445 11.4707C122.462 11.4993 122.471 11.5329 122.469 11.5666C122.466 11.6003 122.453 11.6325 122.432 11.6584C122.41 11.6844 122.381 11.7028 122.348 11.7111V11.707Z" fill="#263238"/>
<path id="Vector_75" d="M130.204 14.167C130.586 16.6721 131.124 20.5119 133.325 21.4811C133.325 21.4811 133.538 24.0847 129.189 25.6494C124.409 27.3701 126.052 24.1011 126.052 24.1011C128.438 22.5365 127.674 20.6269 126.565 18.9719L130.204 14.167Z" fill="#7F3E3B"/>
<path id="Vector_76" d="M133.736 20.9434C133.736 20.159 132.935 18.7997 132.126 18.89C131.235 18.9927 127.834 20.2452 126.594 21.391C125.354 22.5368 126.233 24.545 126.233 24.545L133.736 20.9434Z" fill="#263238"/>
<path id="Vector_77" d="M159.957 115.891C159.743 116.112 159.501 116.301 159.312 116.273C159.23 116.273 159.123 116.215 159.07 116.034C159.055 115.989 159.051 115.94 159.058 115.893C159.064 115.845 159.081 115.8 159.107 115.759C159.337 115.369 160.339 115.168 160.367 115.16C160.381 115.157 160.395 115.158 160.408 115.163C160.422 115.168 160.433 115.177 160.441 115.188C160.448 115.2 160.452 115.214 160.452 115.227C160.452 115.241 160.448 115.255 160.441 115.266C160.302 115.491 160.139 115.7 159.957 115.891ZM159.283 115.763C159.261 115.784 159.241 115.807 159.226 115.833C159.211 115.857 159.202 115.883 159.199 115.911C159.195 115.939 159.197 115.967 159.205 115.993C159.246 116.121 159.308 116.129 159.328 116.133C159.538 116.158 159.969 115.722 160.228 115.34C159.885 115.408 159.562 115.553 159.283 115.763Z" fill="#3F6DD9"/>
<path id="Vector_78" d="M160.433 115.278C160.425 115.287 160.416 115.295 160.404 115.299C160.064 115.406 159.172 115.377 158.971 115.098C158.942 115.053 158.929 115.001 158.933 114.948C158.938 114.895 158.96 114.845 158.996 114.806C159.029 114.762 159.07 114.725 159.119 114.698C159.167 114.671 159.22 114.655 159.275 114.65C159.723 114.597 160.4 115.151 160.429 115.176C160.439 115.184 160.446 115.194 160.45 115.205C160.455 115.217 160.456 115.229 160.454 115.241C160.45 115.255 160.443 115.268 160.433 115.278ZM159.131 114.868C159.131 114.868 159.131 114.868 159.111 114.892C159.053 114.966 159.078 114.999 159.09 115.016C159.205 115.18 159.834 115.254 160.22 115.192C159.959 114.964 159.635 114.821 159.292 114.782C159.26 114.784 159.23 114.793 159.202 114.808C159.175 114.823 159.151 114.843 159.131 114.868Z" fill="#3F6DD9"/>
<path id="Vector_79" d="M135.111 124.474C134.725 124.474 134.352 124.421 134.224 124.248C134.193 124.203 134.176 124.148 134.176 124.092C134.176 124.037 134.193 123.982 134.224 123.936C134.249 123.894 134.281 123.858 134.32 123.829C134.359 123.8 134.403 123.779 134.45 123.768C134.951 123.632 136.007 124.232 136.052 124.261C136.064 124.267 136.074 124.278 136.08 124.29C136.085 124.303 136.087 124.317 136.085 124.331C136.083 124.346 136.077 124.36 136.066 124.371C136.056 124.382 136.042 124.39 136.027 124.392C135.725 124.445 135.418 124.473 135.111 124.474ZM134.635 123.891C134.589 123.884 134.542 123.884 134.495 123.891C134.466 123.897 134.439 123.909 134.415 123.926C134.391 123.943 134.371 123.964 134.356 123.99C134.306 124.08 134.323 124.121 134.356 124.15C134.495 124.343 135.255 124.347 135.818 124.269C135.453 124.068 135.053 123.94 134.639 123.891H134.635Z" fill="#3F6DD9"/>
<path id="Vector_80" d="M136.027 124.392C136.018 124.396 136.008 124.396 135.998 124.392C135.633 124.232 134.914 123.571 134.968 123.238C134.968 123.156 135.037 123.058 135.235 123.037C135.308 123.028 135.382 123.035 135.453 123.056C135.524 123.077 135.589 123.113 135.645 123.16C135.922 123.488 136.086 123.895 136.113 124.323C136.115 124.335 136.113 124.348 136.108 124.359C136.103 124.371 136.095 124.381 136.085 124.388C136.076 124.393 136.066 124.396 136.056 124.397C136.046 124.397 136.037 124.396 136.027 124.392ZM135.292 123.16H135.247C135.12 123.16 135.111 123.222 135.107 123.238C135.074 123.444 135.567 123.957 135.929 124.179C135.893 123.834 135.749 123.509 135.518 123.251C135.454 123.199 135.374 123.171 135.292 123.169V123.16Z" fill="#3F6DD9"/>
<path id="Vector_81" d="M139.347 124.322H136.328L136.028 117.332H139.047L139.347 124.322Z" fill="#7F3E3B"/>
<path id="Vector_82" d="M163.522 114.088L160.73 115.102L157.182 108.843L159.974 107.829L163.522 114.088Z" fill="#7F3E3B"/>
<path id="Vector_83" d="M160.29 114.827L162.647 112.388C162.689 112.346 162.744 112.319 162.802 112.312C162.861 112.304 162.921 112.317 162.972 112.347L165.312 113.784C165.369 113.819 165.417 113.867 165.452 113.924C165.488 113.98 165.51 114.044 165.518 114.11C165.525 114.176 165.518 114.244 165.496 114.307C165.474 114.37 165.438 114.427 165.39 114.474C164.569 115.295 164.105 115.677 163.07 116.749C162.43 117.406 160.532 119.624 159.653 120.552C158.775 121.48 157.756 120.708 158.035 120.256C159.288 118.232 160.044 116.306 160.089 115.308C160.094 115.128 160.166 114.957 160.29 114.827Z" fill="#263238"/>
<path id="Vector_84" d="M136.344 123.973H139.63C139.69 123.972 139.748 123.992 139.795 124.03C139.842 124.067 139.875 124.119 139.888 124.178L140.484 126.86C140.499 126.924 140.499 126.992 140.484 127.057C140.469 127.121 140.439 127.182 140.397 127.233C140.355 127.285 140.302 127.326 140.242 127.354C140.181 127.382 140.115 127.395 140.049 127.394C138.862 127.394 137.145 127.307 135.65 127.307C133.905 127.307 133.141 127.402 131.092 127.402C129.86 127.402 129.511 126.149 130.028 126.034C132.39 125.517 133.568 125.463 135.609 124.207C135.828 124.062 136.082 123.981 136.344 123.973Z" fill="#263238"/>
<path id="Vector_85" d="M128.151 27.9953C127.687 29.1657 127.194 30.254 126.685 31.3711C126.176 32.4881 125.634 33.5723 125.075 34.6564C123.943 36.8871 122.646 39.0299 121.194 41.067C120.812 41.5845 120.402 42.0978 119.962 42.607C119.736 42.8658 119.506 43.1039 119.235 43.3709C118.922 43.6671 118.579 43.9313 118.213 44.1594C117.61 44.5284 116.975 44.8432 116.316 45.0998C115.7 45.3503 115.084 45.5557 114.48 45.7363C112.1 46.4265 109.659 46.8804 107.19 47.0916L106.73 44.8739C108.928 44.0813 111.162 43.2559 113.219 42.336C113.728 42.0978 114.229 41.8555 114.697 41.605C115.13 41.3802 115.543 41.1177 115.93 40.8206C116.063 40.7201 116.185 40.6059 116.295 40.4798C116.439 40.3114 116.611 40.1143 116.767 39.913C117.083 39.5024 117.396 39.067 117.695 38.603C118.307 37.6913 118.874 36.7016 119.42 35.6954C119.966 34.6893 120.5 33.6421 121.01 32.6154C122.032 30.5333 123.022 28.3773 123.934 26.2705L128.151 27.9953Z" fill="#7F3E3B"/>
<path id="Vector_86" d="M135.038 20.1993C139.366 19.8626 143.251 26.2814 143.251 26.2814L140.142 31.3326C137.906 30.4484 135.826 29.2102 133.982 27.6653C131.038 25.1069 132.081 20.4334 135.038 20.1993Z" fill="#3F6DD9"/>
<path id="Vector_87" opacity="0.3" d="M134.767 25.6084L139.321 31.7397L139.116 31.9902C139.116 31.9902 137.547 30.7582 135.732 28.9759L134.767 25.6084Z" fill="black"/>
<path id="Vector_88" d="M123.032 24.985C122.79 27.1 126.318 36.4551 127.139 47.5515L143.201 45.9704C143.086 43.8431 141.911 34.8822 139.784 24.7674C139.196 21.9748 137.032 19.8393 134.236 20.3855H134.158C131.911 20.824 129.693 21.3931 127.513 22.0898C126.28 22.5388 125.078 23.0698 123.915 23.6791C123.672 23.8074 123.464 23.9936 123.31 24.2214C123.156 24.4492 123.061 24.7115 123.032 24.985Z" fill="#3F6DD9"/>
<path id="Vector_89" opacity="0.3" d="M124.659 32.7544C124.93 33.8837 125.214 35.1075 125.481 36.4094C127.924 35.8303 127.452 30.4136 127.501 30.3438L124.659 32.7544Z" fill="black"/>
<path id="Vector_90" d="M128.265 26.0324C129.497 30.2582 124.939 35.8885 124.939 35.8885L120.348 32.9317C120.348 32.9317 120.315 29.059 121.781 26.0365C123.641 22.209 127.387 23.0181 128.265 26.0324Z" fill="#3F6DD9"/>
<path id="Vector_91" d="M106.775 44.4712L104.931 44.2207L104.959 48.0728C104.959 48.0728 107.444 48.3274 108.824 46.6149L108.553 45.8921C108.412 45.517 108.173 45.1868 107.859 44.9367C107.546 44.6865 107.172 44.5257 106.775 44.4712Z" fill="#7F3E3B"/>
<path id="Vector_92" d="M101.781 45.1119L102.96 48.2494L104.976 48.0728L104.948 44.2207L101.781 45.1119Z" fill="#7F3E3B"/>
<path id="Vector_93" opacity="0.2" d="M136.028 117.336L136.197 121.262H139.215L139.047 117.336H136.028Z" fill="black"/>
<path id="Vector_94" opacity="0.2" d="M159.974 107.829L157.182 108.843L159.145 112.31L161.806 111.053L159.974 107.829Z" fill="black"/>
<path id="Vector_95" d="M130.495 10.5865C131.132 13.9006 131.674 15.8061 130.454 17.9046C128.623 21.0586 124.212 20.5945 122.602 17.5391C121.148 14.7835 120.352 9.83084 123.202 7.71588C123.83 7.24331 124.569 6.93963 125.348 6.83384C126.127 6.72804 126.92 6.82366 127.651 7.11156C128.383 7.39946 129.028 7.87004 129.526 8.47837C130.024 9.08671 130.358 9.8125 130.495 10.5865Z" fill="#7F3E3B"/>
<path id="Vector_96" d="M124.915 12.8004C122.895 13.8106 122.862 10.5827 123.022 9.89691C122.262 10.6279 121.235 11.363 119.371 10.5581C117.079 9.56837 117.728 6.98114 119.371 7.01399C119.371 7.01399 118.139 4.67316 120.833 4.42676C121.942 4.38986 123.047 4.55976 124.094 4.92778C124.094 4.92778 125.092 2.3118 127.523 3.58078C128.808 4.25017 129.835 6.22961 129.835 6.22961C129.835 6.22961 135.071 7.00578 132.229 9.74085C132.874 11.1454 132.533 15.7161 130.87 17.6709C130.143 18.5251 123.921 18.2746 124.915 12.8004Z" fill="#263238"/>
<path id="Vector_97" d="M128.926 7.56403C128.926 7.56403 129.874 6.25399 129.952 3.23145C132.166 5.63798 128.926 7.56403 128.926 7.56403Z" fill="#263238"/>
<path id="Vector_98" d="M125.895 12.6151C125.949 13.4527 125.723 14.2844 125.255 14.9806C124.639 15.8964 123.801 15.5022 123.53 14.5371C123.283 13.6706 123.308 12.147 124.142 11.572C124.975 10.9971 125.809 11.6049 125.895 12.6151Z" fill="#7F3E3B"/>
<path id="Vector_99" d="M132.844 46.9927C132.844 46.9927 138.511 69.5797 141.23 78.0107C144.203 87.2262 157.106 111.386 157.106 111.386L162.17 109.181C162.17 109.181 152.404 87.1852 150.318 77.9697C148.055 67.9821 143.209 45.9619 143.209 45.9619L132.844 46.9927Z" fill="#263238"/>
<path id="Vector_100" d="M155.608 109.719C155.587 109.719 157.25 112.097 157.25 112.097L162.938 109.584L161.788 107.23L155.608 109.719Z" fill="#3F6DD9"/>
<path id="Vector_101" opacity="0.3" d="M135.806 54.956C139.822 55.3379 140.849 70.0728 141.12 77.6784C139.456 72.4465 136.783 62.3316 134.927 55.149C135.19 54.9873 135.499 54.9193 135.806 54.956Z" fill="black"/>
<path id="Vector_102" d="M127.148 47.5521C127.148 47.5521 127.801 70.7633 129.029 79.8884C130.307 89.379 135.029 119.724 135.029 119.724H140.142C140.142 119.724 138.959 89.0792 138.265 79.7036C137.51 69.482 137.707 46.5049 137.707 46.5049L127.148 47.5521Z" fill="#263238"/>
<path id="Vector_103" d="M134.01 117.336C133.99 117.336 134.421 120.428 134.421 120.428L140.635 120.215L140.692 117.34L134.01 117.336Z" fill="#3F6DD9"/>
</g>
</g>
</svg>
